<svg width="512" height="512" xmlns="http://www.w3.org/2000/svg">

 <g>
  <title>background</title>
  <rect fill="none" id="canvas_background" height="402" width="582" y="-1" x="-1"/>
 </g>
 <g>
  <title>Layer 1</title>
  <path fill="#0068e0" id="svg_2" d="m512,397.1c0,63.5 -51.5,114.9 -114.9,114.9l-282.2,0c-63.4,0 -114.9,-51.5 -114.9,-114.9l0,-282.2c0,-63.4 51.5,-114.9 114.9,-114.9l282.2,0c63.4,0 114.9,51.5 114.9,114.9l0,282.2z" class="st0"/>
  <path fill="#ffffff" id="svg_3" d="m383.1,134.1l-266.8,103.9c-8.6,3.4 -8.1,15.8 0.8,18.4l67.8,20l25.3,80.3c2.6,8.4 13.3,10.9 19.4,4.6l35.1,-35.8l68.8,50.5c8.4,6.2 20.4,1.6 22.5,-8.6l45.5,-217.8c2.3,-10.6 -8.2,-19.5 -18.4,-15.5l0,0l0,0zm-33.4,48.3l-123.9,109.6c-1.2,1.1 -2,2.6 -2.2,4.2l-4.8,42.4c-0.2,1.4 -2.1,1.6 -2.5,0.2l-19.6,-63.3c-0.9,-2.9 0.3,-6 2.9,-7.6l146.3,-90.8c3.3,-1.9 6.8,2.7 3.8,5.3l0,0l0,0z" class="st1"/>
 </g>
</svg>